HIERARCHY
ROOT Hips
{
	OFFSET 0.000000 0.000000 0.000000
	CHANNELS 6 Xposition Yposition Zposition Xrotation Yrotation Zrotation
	JOINT LeftUpLeg_virtual
	{
		OFFSET 0.000000 0.000000 0.000000
		CHANNELS 3 Xrotation Yrotation Zrotation
		JOINT LeftUpLeg
		{
			OFFSET 13.026900 -6.336304 -1.092800
			CHANNELS 3 Xrotation Yrotation Zrotation
			JOINT LeftLeg
			{
				OFFSET 0.524474 -46.096886 9.782700
				CHANNELS 3 Xrotation Yrotation Zrotation
				JOINT LeftFoot
				{
					OFFSET -0.524474 -53.427422 -12.948200
					CHANNELS 3 Xrotation Yrotation Zrotation
					JOINT LeftToeBase
					{
						OFFSET 0.192200 -14.009700 16.364100
						CHANNELS 3 Xrotation Yrotation Zrotation
						JOINT LeftToe_End
						{
							OFFSET -1.784700 -0.561700 9.474800
							CHANNELS 3 Xrotation Yrotation Zrotation
							End Site
							{
								OFFSET 0 0 0
							}
						}
					}
				}
			}
		}
	}
	JOINT RightUpLeg_virtual
	{
		OFFSET 0.000000 0.000000 0.000000
		CHANNELS 3 Xrotation Yrotation Zrotation
		JOINT RightUpLeg
		{
			OFFSET -12.883000 -6.336304 -1.092800
			CHANNELS 3 Xrotation Yrotation Zrotation
			JOINT RightLeg
			{
				OFFSET -0.524587 -46.096825 9.782800
				CHANNELS 3 Xrotation Yrotation Zrotation
				JOINT RightFoot
				{
					OFFSET 0.524587 -53.427383 -12.948300
					CHANNELS 3 Xrotation Yrotation Zrotation
					JOINT RightToeBase
					{
						OFFSET -0.192200 -14.009700 16.364100
						CHANNELS 3 Xrotation Yrotation Zrotation
						JOINT RightToe_End
						{
							OFFSET 1.784700 -0.561700 9.474800
							CHANNELS 3 Xrotation Yrotation Zrotation
							End Site
							{
								OFFSET 0 0 0
							}
						}
					}
				}
			}
		}
	}
	JOINT Spine_virtual
	{
		OFFSET 0.000000 0.000000 0.000000
		CHANNELS 3 Xrotation Yrotation Zrotation
		JOINT Spine
		{
			OFFSET 0.072000 7.257294 -0.789700
			CHANNELS 3 Xrotation Yrotation Zrotation
			JOINT Spine1
			{
				OFFSET 0.000000 12.508769 -0.658067
				CHANNELS 3 Xrotation Yrotation Zrotation
				JOINT Spine1_split
				{
					OFFSET 0.000000 12.508769 -0.658067
					CHANNELS 3 Xrotation Yrotation Zrotation
					JOINT Spine2
					{
						OFFSET 0.000000 12.508769 -0.658067
						CHANNELS 3 Xrotation Yrotation Zrotation
						JOINT Neck_virtual
						{
							OFFSET 0.000000 0.000000 0.000000
							CHANNELS 3 Xrotation Yrotation Zrotation
							JOINT Neck
							{
								OFFSET 0.000000 14.033295 7.520400
								CHANNELS 3 Xrotation Yrotation Zrotation
								JOINT Head
								{
									OFFSET 0.000000 8.198502 5.703100
									CHANNELS 3 Xrotation Yrotation Zrotation
									JOINT HeadTop_End
									{
										OFFSET 0.000000 17.760803 13.332701
										CHANNELS 3 Xrotation Yrotation Zrotation
										End Site
										{
											OFFSET 0 0 0
										}
									}
								}
							}
						}
						JOINT LeftShoulder_virtual
						{
							OFFSET 0.000000 0.000000 0.000000
							CHANNELS 3 Xrotation Yrotation Zrotation
							JOINT LeftShoulder
							{
								OFFSET 6.292450 5.785301 -0.669000
								CHANNELS 3 Xrotation Yrotation Zrotation
								JOINT LeftShoulder_split
								{
									OFFSET 6.292450 5.785301 -0.669000
									CHANNELS 3 Xrotation Yrotation Zrotation
									JOINT LeftArm
									{
										OFFSET 13.907140 -6.093903 1.965100
										CHANNELS 3 Xrotation Yrotation Zrotation
										JOINT LeftForeArm
										{
											OFFSET 34.140198 0.000000 0.000000
											CHANNELS 3 Xrotation Yrotation Zrotation
											JOINT LeftHand
											{
												OFFSET 40.960209 0.000000 0.000000
												CHANNELS 3 Xrotation Yrotation Zrotation
												End Site
												{
													OFFSET 0 0 0
												}
											}
										}
									}
								}
							}
						}
						JOINT RightShoulder_virtual
						{
							OFFSET 0.000000 0.000000 0.000000
							CHANNELS 3 Xrotation Yrotation Zrotation
							JOINT RightShoulder
							{
								OFFSET -6.292450 5.785301 -0.669000
								CHANNELS 3 Xrotation Yrotation Zrotation
								JOINT RightShoulder_split
								{
									OFFSET -6.292450 5.785301 -0.669000
									CHANNELS 3 Xrotation Yrotation Zrotation
									JOINT RightArm
									{
										OFFSET -13.907140 -6.093903 1.965100
										CHANNELS 3 Xrotation Yrotation Zrotation
										JOINT RightForeArm
										{
											OFFSET -34.140198 0.000000 0.000000
											CHANNELS 3 Xrotation Yrotation Zrotation
											JOINT RightHand
											{
												OFFSET -40.960209 0.000000 0.000000
												CHANNELS 3 Xrotation Yrotation Zrotation
												End Site
												{
													OFFSET 0 0 0
												}
											}
										}
									}
								}
							}
						}
					}
				}
			}
		}
	}
}
MOTION
Frames: 5
Frame Time: 0.03333333
-26.934855 92.561699 -9.789776 0.000000 0.000000 0.000000 35.508818 7.294791 -4.359656 -62.400649 -18.417728 24.257588 37.038675 5.020445 -2.192999 8.013318 8.376792 -28.680118 -1.644370 0.028998 -0.453325 0.000000 0.000000 0.000000 35.933058 6.508138 -4.417497 -60.591298 -1.903214 -25.649404 48.616607 1.689037 0.300758 -14.239683 -6.613080 23.588209 0.374644 0.520879 0.677360 0.000000 0.000000 0.000000 36.289256 4.992272 -4.671647 9.020278 1.681489 0.983788 11.694142 1.878800 1.279414 0.933867 0.329779 0.170670 0.000000 0.000000 0.000000 10.333809 2.009795 1.058185 -0.634816 -1.867101 -2.449410 -30.270630 -11.171493 3.485672 0.000000 0.000000 0.000000 10.730505 1.883459 0.802329 0.748204 -20.919515 -10.184630 0.906918 0.495053 -2.611044 14.822240 -10.959874 -49.391540 -3.235988 -72.257616 -3.234474 0.000000 0.000000 0.000000 10.498342 2.198011 1.466457 2.794840 26.458029 7.855182 0.474568 3.162299 -0.099143 -4.827256 41.696751 18.129822 -0.972673 20.045738 1.323267 0.000000 0.000000 0.000000 
-25.935442 91.248390 -9.732990 0.000000 0.000000 0.000000 38.200384 7.336462 -3.946076 -67.318816 -17.315627 23.375475 39.712827 3.815744 -2.161941 7.032202 7.049307 -28.637033 -1.807073 -0.074906 -0.216741 0.000000 0.000000 0.000000 38.720759 6.060001 -3.763466 -63.806931 -0.782937 -27.076550 49.608610 2.634255 0.275758 -14.953596 -6.810718 24.221299 -0.007871 0.575248 0.611117 0.000000 0.000000 0.000000 39.190321 4.922386 -4.136221 9.341824 1.996909 1.009082 11.954972 2.040926 1.311403 0.942404 0.302734 0.192638 0.000000 0.000000 0.000000 10.563475 2.193133 1.036230 -0.748661 -2.046147 -2.629258 -32.083065 -12.028666 2.692921 0.000000 0.000000 0.000000 11.022444 2.044082 0.805436 0.772742 -21.561890 -9.798056 0.873057 0.353971 -2.792233 14.709740 -10.828123 -49.046000 -3.955341 -74.452019 -4.006394 0.000000 0.000000 0.000000 10.686357 2.377347 1.518759 2.778602 26.858375 8.026055 0.687726 3.097024 -0.198056 -7.335120 41.614270 15.082448 -1.272652 20.571823 1.427547 0.000000 0.000000 0.000000 
-24.933109 89.940529 -9.541187 0.000000 0.000000 0.000000 40.797150 7.709728 -3.424738 -72.285750 -15.995477 22.585766 42.414068 2.610428 -2.232728 5.951964 5.579973 -28.085740 -1.855417 -0.174059 -0.142780 0.000000 0.000000 0.000000 41.358763 5.964901 -3.012993 -66.817111 0.561796 -28.844548 50.999520 3.645354 0.378870 -15.630398 -6.965124 25.023624 -0.447173 0.613696 0.571741 0.000000 0.000000 0.000000 42.000165 5.078750 -3.441447 9.653555 2.289569 1.036589 12.131355 2.206885 1.305181 1.013318 0.242202 0.181438 0.000000 0.000000 0.000000 10.718758 2.386943 0.986526 -0.840139 -2.252530 -2.767282 -33.723202 -12.971463 1.856356 0.000000 0.000000 0.000000 11.224238 2.223942 0.800045 0.830331 -22.187572 -9.312068 0.983881 0.109815 -3.020083 15.304434 -11.664127 -48.830535 -4.570418 -76.409654 -4.700774 0.000000 0.000000 0.000000 10.802806 2.552820 1.539396 2.768982 26.995013 8.297217 0.903161 3.007006 -0.235495 -10.852066 41.325619 12.738906 -1.531525 21.185145 1.409089 0.000000 0.000000 0.000000 
-23.953897 88.464615 -9.178791 0.000000 0.000000 0.000000 43.242962 8.424527 -2.790540 -77.101737 -14.592371 21.897832 45.092738 1.460470 -2.428328 4.899016 4.187764 -27.128591 -1.893037 -0.256957 -0.206733 0.000000 0.000000 0.000000 43.778313 6.343210 -2.200157 -69.485079 2.199460 -30.928111 52.833289 4.617776 0.597429 -16.644442 -7.235166 25.661434 -0.507520 0.645197 0.584884 0.000000 0.000000 0.000000 44.604468 5.537190 -2.598056 9.960233 2.550026 1.035090 12.284023 2.401478 1.281002 1.031082 0.199216 0.191913 0.000000 0.000000 0.000000 10.874001 2.607970 0.933511 -0.996377 -2.483530 -2.911817 -35.279317 -13.948136 0.952664 0.000000 0.000000 0.000000 11.400404 2.442797 0.805645 0.917635 -22.699898 -8.762030 1.181129 -0.096761 -3.210738 16.158346 -13.221826 -48.722502 -5.066006 -77.888008 -5.271732 0.000000 0.000000 0.000000 10.911140 2.738813 1.534397 2.804738 26.961076 8.552634 1.142541 2.867597 -0.208767 -14.582992 40.894692 10.626368 -1.711007 22.102455 1.297388 0.000000 0.000000 0.000000 
-23.080271 86.688736 -8.708813 0.000000 0.000000 0.000000 45.427387 9.473459 -2.057441 -81.560477 -13.288627 21.245571 47.802206 0.355819 -2.705661 3.762968 3.074332 -25.935350 -1.904230 -0.330457 -0.341928 0.000000 0.000000 0.000000 45.975731 7.253991 -1.373932 -71.679680 4.145678 -33.214469 55.244455 5.446172 0.915254 -18.190114 -7.739339 25.885425 -0.154863 0.677228 0.662735 0.000000 0.000000 0.000000 46.925592 6.271806 -1.649246 10.281621 2.782489 0.973869 12.480366 2.653317 1.262021 0.955044 0.164150 0.278842 0.000000 0.000000 0.000000 11.108353 2.878997 0.895469 -1.360096 -2.753214 -3.110196 -36.870621 -14.887782 -0.033642 0.000000 0.000000 0.000000 11.623472 2.712876 0.838246 1.039733 -23.012757 -8.173206 1.356676 -0.229467 -3.288691 16.811990 -15.124889 -48.692340 -5.609540 -78.753440 -5.847916 0.000000 0.000000 0.000000 11.096519 2.959325 1.524904 2.905194 26.896650 8.680418 1.376694 2.729166 -0.078697 -17.727710 40.490833 8.167422 -1.758130 23.217838 1.151482 0.000000 0.000000 0.000000 
